<mxfile host="app.diagrams.net" agent="Mozilla/5.0 (Macintosh; Intel Mac OS X 10_15_7) AppleWebKit/537.36 (KHTML, like Gecko) Chrome/130.0.0.0 Safari/537.36" version="24.8.6">
  <diagram name="PÃ¡gina-1" id="Ge3Q-BxXhZmWbwJVneCc">
    <mxGraphModel dx="2261" dy="740" grid="1" gridSize="10" guides="1" tooltips="1" connect="1" arrows="1" fold="1" page="1" pageScale="1" pageWidth="827" pageHeight="1169" math="0" shadow="0">
      <root>
        <mxCell id="0" />
        <mxCell id="1" parent="0" />
        <mxCell id="3fK8lE51K2LWWdmkEUk4-11" value="" style="rounded=0;whiteSpace=wrap;html=1;" vertex="1" parent="1">
          <mxGeometry x="-30" y="70" width="890" height="470" as="geometry" />
        </mxCell>
        <mxCell id="3fK8lE51K2LWWdmkEUk4-3" value="buscar(palabra)" style="edgeStyle=orthogonalEdgeStyle;rounded=0;orthogonalLoop=1;jettySize=auto;html=1;entryX=0;entryY=0.5;entryDx=0;entryDy=0;" edge="1" parent="1" source="3fK8lE51K2LWWdmkEUk4-1" target="3fK8lE51K2LWWdmkEUk4-2">
          <mxGeometry x="-0.0769" y="10" relative="1" as="geometry">
            <mxPoint as="offset" />
          </mxGeometry>
        </mxCell>
        <mxCell id="3fK8lE51K2LWWdmkEUk4-1" value="PrincipalClient" style="rounded=1;whiteSpace=wrap;html=1;" vertex="1" parent="1">
          <mxGeometry x="60" y="280" width="120" height="60" as="geometry" />
        </mxCell>
        <mxCell id="3fK8lE51K2LWWdmkEUk4-5" value="buscar(palabra,archivo)" style="edgeStyle=orthogonalEdgeStyle;rounded=0;orthogonalLoop=1;jettySize=auto;html=1;" edge="1" parent="1" source="3fK8lE51K2LWWdmkEUk4-2" target="3fK8lE51K2LWWdmkEUk4-4">
          <mxGeometry x="-0.6" y="10" relative="1" as="geometry">
            <Array as="points">
              <mxPoint x="580" y="310" />
              <mxPoint x="580" y="210" />
            </Array>
            <mxPoint as="offset" />
          </mxGeometry>
        </mxCell>
        <mxCell id="3fK8lE51K2LWWdmkEUk4-7" style="edgeStyle=orthogonalEdgeStyle;rounded=0;orthogonalLoop=1;jettySize=auto;html=1;entryX=0;entryY=0.5;entryDx=0;entryDy=0;" edge="1" parent="1" source="3fK8lE51K2LWWdmkEUk4-2" target="3fK8lE51K2LWWdmkEUk4-6">
          <mxGeometry relative="1" as="geometry">
            <Array as="points">
              <mxPoint x="580" y="310" />
              <mxPoint x="580" y="290" />
            </Array>
          </mxGeometry>
        </mxCell>
        <mxCell id="3fK8lE51K2LWWdmkEUk4-10" style="edgeStyle=orthogonalEdgeStyle;rounded=0;orthogonalLoop=1;jettySize=auto;html=1;entryX=0;entryY=0.5;entryDx=0;entryDy=0;" edge="1" parent="1" source="3fK8lE51K2LWWdmkEUk4-2" target="3fK8lE51K2LWWdmkEUk4-9">
          <mxGeometry relative="1" as="geometry">
            <Array as="points">
              <mxPoint x="580" y="310" />
              <mxPoint x="580" y="410" />
            </Array>
          </mxGeometry>
        </mxCell>
        <mxCell id="3fK8lE51K2LWWdmkEUk4-2" value="MasterServer" style="rounded=1;whiteSpace=wrap;html=1;" vertex="1" parent="1">
          <mxGeometry x="300" y="280" width="120" height="60" as="geometry" />
        </mxCell>
        <mxCell id="3fK8lE51K2LWWdmkEUk4-4" value="workerServer 1" style="rounded=1;whiteSpace=wrap;html=1;" vertex="1" parent="1">
          <mxGeometry x="670" y="180" width="120" height="60" as="geometry" />
        </mxCell>
        <mxCell id="3fK8lE51K2LWWdmkEUk4-6" value="workerServer 2" style="rounded=1;whiteSpace=wrap;html=1;" vertex="1" parent="1">
          <mxGeometry x="670" y="260" width="120" height="60" as="geometry" />
        </mxCell>
        <mxCell id="3fK8lE51K2LWWdmkEUk4-8" value="..." style="text;html=1;align=center;verticalAlign=middle;whiteSpace=wrap;rounded=0;fontSize=27;" vertex="1" parent="1">
          <mxGeometry x="700" y="340" width="60" height="30" as="geometry" />
        </mxCell>
        <mxCell id="3fK8lE51K2LWWdmkEUk4-9" value="workerServer n" style="rounded=1;whiteSpace=wrap;html=1;" vertex="1" parent="1">
          <mxGeometry x="670" y="380" width="120" height="60" as="geometry" />
        </mxCell>
      </root>
    </mxGraphModel>
  </diagram>
</mxfile>
